<svg width="840px" height="129px" version="1.1" xmlns="http://www.w3.org/2000/svg" xmlns:xlink="http://www.w3.org/1999/xlink" overflow="visible" id="x185sime">
   <desc>Engraved by Verovio 6.3.0-425dd7b</desc>
   <defs>
      <g id="E062-x185sime">
         <path transform="scale(1,-1)" d="M582 -120c0 32 26 58 58 58s58 -26 58 -58s-26 -58 -58 -58s-58 26 -58 58zM582 120c0 32 26 58 58 58s58 -26 58 -58s-26 -58 -58 -58s-58 26 -58 58zM158 96c51 0 73 -14 88 -49l16 -39c0 -17 -2 -30 -7 -40c-3 -11 -10 -21 -19 -31c-17 -18 -49 -43 -84 -43 c-55 0 -77 13 -112 44c-24 21 -35 55 -35 100c0 46 14 81 32 112c30 52 71 79 137 93l36 6l26 2c154 0 235 -68 274 -182c11 -32 18 -68 18 -107c0 -103 -26 -182 -68 -250c-89 -145 -234 -230 -412 -288l-30 -5c-9 0 -14 3 -14 8c3 10 5 11 10 16c35 15 70 30 96 44l78 43 c96 57 162 136 197 258c9 33 17 60 22 100c3 22 5 35 6 39c-7 69 -16 115 -23 140s-4 22 -16 40c-8 12 -19 23 -31 34c-24 21 -62 44 -118 44c-48 0 -84 -8 -113 -28c-28 -19 -42 -44 -42 -73v-16c2 -5 3 -9 4 -11c24 22 52 39 84 39z" />
      </g>
      <g id="E084-x185sime">
         <path transform="scale(1,-1)" d="M20 -78c84 97 114 180 134 329h170c-13 -32 -82 -132 -99 -151l-84 -97c-33 -36 -59 -63 -80 -81h162v102l127 123v-225h57v-39h-57v-34c0 -43 19 -65 57 -65v-34h-244v36c48 0 60 26 60 70v27h-203v39z" />
      </g>
      <g id="E0A4-x185sime">
         <path transform="scale(1,-1)" d="M0 -39c0 68 73 172 200 172c66 0 114 -37 114 -95c0 -84 -106 -171 -218 -171c-64 0 -96 30 -96 94z" />
      </g>
      <g id="E4E5-x185sime">
         <path transform="scale(1,-1)" d="M107 292c-13 24 -30 49 -52 71c-1 1 0 2 0 3l-2 2c3 3 4 4 6 4c12 0 26 -7 40 -20s44 -40 89 -81c26 -24 28 -29 46 -47c4 -4 8 -9 10 -14c6 -8 8 -16 8 -27c0 -19 -12 -40 -36 -61c-28 -23 -49 -38 -61 -73c-4 -11 -7 -27 -10 -50c13 -43 34 -83 59 -121 c31 -47 59 -79 101 -129c-8 0 -26 7 -54 20l-62 29l-21 6l-23 1c-25 0 -45 -10 -60 -30l-4 -14l-1 -12c0 -33 20 -56 39 -78c8 -9 17 -18 26 -26c17 -15 27 -24 28 -30l-3 -3c-11 5 -19 10 -25 15c-9 3 -37 21 -45 26c-24 14 -45 32 -63 51c-19 21 -37 44 -37 71 c0 63 27 95 80 95c41 0 86 -18 136 -52c-19 26 -37 48 -55 66c-23 23 -48 44 -73 65c-28 23 -47 40 -58 53s-17 26 -18 39c75 64 113 125 113 183c0 27 -7 48 -18 68z" />
      </g>
      <g id="E262-x185sime">
         <path transform="scale(1,-1)" d="M136 186v169h17v-164l44 14v-91l-44 -14v-165l44 12v-91l-44 -13v-155h-17v150l-76 -22v-155h-17v149l-43 -13v90l43 14v167l-43 -14v92l43 13v169h17v-163zM60 73v-167l76 22v168z" />
      </g>
   </defs>
   <style type="text/css">#x185sime g.ending, #x185sime g.fing, #x185sime g.reh, #x185sime g.tempo {font-weight:bold;}#x185sime g.dir, #x185sime g.dynam, #x185sime g.mNum {font-style:italic;}#x185sime g.label {font-weight:normal;}#x185sime ellipse, #x185sime path, #x185sime polygon, #x185sime polyline, #x185sime rect {stroke:currentColor}#x185sime g.cursor {fill:dodgerblue; color:dodgerblue;}#x185sime g.cursor.chord {fill:limegreen; color:limegreen;}</style>
   <svg class="definition-scale" color="black" font-family="Times, serif" viewBox="0 0 21000 3220">
      <g class="page-margin" transform="translate(500, 500)">
         <g id="hckl76t" class="mdiv pageMilestone" />
         <g id="iq84xc9" class="score pageMilestone" />
         <g id="uyhbt3n" class="system">
            <g id="e1i5srwd" class="label">
               <text x="2169" y="1413" text-anchor="end" font-size="0px">
                  <tspan id="f1a4b541" class="text">
                     <tspan font-size="288px">Bajo / contrabajo</tspan>
                  </tspan>
               </text>
            </g>
            <g id="kmtuit7" class="section systemMilestone" />
            <g id="t12jzbp0" class="section systemMilestone" />
            <g id="z1ab3t1v" class="measure">
               <g id="i15xkzp3" class="staff">
                  <path d="M2349 963 L6439 963" stroke-width="13" />
                  <path d="M2349 1143 L6439 1143" stroke-width="13" />
                  <path d="M2349 1323 L6439 1323" stroke-width="13" />
                  <path d="M2349 1503 L6439 1503" stroke-width="13" />
                  <path d="M2349 1683 L6439 1683" stroke-width="13" />
                  <g id="esgsc6" class="clef">
                     <use xlink:href="#E062-x185sime" transform="translate(2437, 1143) scale(0.72, 0.72)" />
                  </g>
                  <g id="f97y02n" class="keySig" />
                  <g id="gsmjvz4" class="meterSig">
                     <use xlink:href="#E084-x185sime" transform="translate(3104, 1143) scale(0.72, 0.72)" />
                     <use xlink:href="#E084-x185sime" transform="translate(3104, 1503) scale(0.72, 0.72)" />
                  </g>
                  <g id="nb9hi1q" class="layer">
                     <g id="solo-b1-n1" class="note">
                        <g class="notehead">
                           <use xlink:href="#E0A4-x185sime" transform="translate(3666, 1233) scale(0.72, 0.72)" />
                        </g>
                        <g id="s82cokv" class="stem">
                           <path d="M3883 1205 L3883 663" stroke-width="18" />
                        </g>
                     </g>
                     <g id="solo-b1-n2" class="note">
                        <g class="notehead">
                           <use xlink:href="#E0A4-x185sime" transform="translate(4356, 873) scale(0.72, 0.72)" />
                        </g>
                        <g id="t19e1xwh" class="stem">
                           <path d="M4573 845 L4573 423" stroke-width="18" />
                        </g>
                     </g>
                     <g id="solo-b1-n3" class="note">
                        <g class="notehead">
                           <use xlink:href="#E0A4-x185sime" transform="translate(5046, 1233) scale(0.72, 0.72)" />
                        </g>
                        <g id="ulw9r2i" class="stem">
                           <path d="M5263 1205 L5263 663" stroke-width="18" />
                        </g>
                     </g>
                     <g id="solo-b1-n4" class="rest">
                        <use xlink:href="#E4E5-x185sime" transform="translate(5736, 1323) scale(0.72, 0.72)" />
                     </g>
                  </g>
               </g>
               <g id="j1gq2lkg" class="tempo" xml:lang="it">
                  <text x="3104" y="550" font-size="0px">
                     <tspan id="k15ltu9d" class="text">
                        <tspan font-size="288px">Negra = 72</tspan>
                     </tspan>
                  </text>
               </g>
               <g id="ly16s09" class="harm">
                  <text x="3666" y="197" font-size="0px">
                     <tspan id="mdqirff" class="text">
                        <tspan font-size="288px">Cmaj7</tspan>
                     </tspan>
                  </text>
               </g>
               <g id="hqas8gx" class="barLine">
                  <path d="M6426 963 L6426 1683" stroke-width="27" />
               </g>
            </g>
            <g id="s175rbzm" class="measure">
               <g id="b7k2x99" class="staff">
                  <path d="M6439 963 L9578 963" stroke-width="13" />
                  <path d="M6439 1143 L9578 1143" stroke-width="13" />
                  <path d="M6439 1323 L9578 1323" stroke-width="13" />
                  <path d="M6439 1503 L9578 1503" stroke-width="13" />
                  <path d="M6439 1683 L9578 1683" stroke-width="13" />
                  <g id="e1ijeobx" class="layer">
                     <g id="solo-b2-n1" class="note">
                        <g class="notehead">
                           <use xlink:href="#E0A4-x185sime" transform="translate(6805, 1413) scale(0.72, 0.72)" />
                        </g>
                        <g id="v1xwlq4v" class="stem">
                           <path d="M7022 1385 L7022 783" stroke-width="18" />
                        </g>
                        <g id="gqj797l" class="accid">
                           <use xlink:href="#E262-x185sime" transform="translate(6619, 1413) scale(0.72, 0.72)" />
                        </g>
                     </g>
                     <g id="solo-b2-n2" class="note">
                        <g class="notehead">
                           <use xlink:href="#E0A4-x185sime" transform="translate(7495, 1053) scale(0.72, 0.72)" />
                        </g>
                        <g id="wg4fqpr" class="stem">
                           <path d="M7712 1025 L7712 543" stroke-width="18" />
                        </g>
                     </g>
                     <g id="solo-b2-n3" class="note">
                        <g class="notehead">
                           <use xlink:href="#E0A4-x185sime" transform="translate(8185, 1413) scale(0.72, 0.72)" />
                        </g>
                        <g id="xf9u3iv" class="stem">
                           <path d="M8402 1385 L8402 783" stroke-width="18" />
                        </g>
                        <g id="jj4vj8s" class="accid">
                           <use xlink:href="#E262-x185sime" transform="translate(7999, 1413) scale(0.72, 0.72)" />
                        </g>
                     </g>
                     <g id="solo-b2-n4" class="rest">
                        <use xlink:href="#E4E5-x185sime" transform="translate(8875, 1323) scale(0.72, 0.72)" />
                     </g>
                  </g>
               </g>
               <g id="c17f18m5" class="harm">
                  <text x="6805" y="197" font-size="0px">
                     <tspan id="dqdyddr" class="text">
                        <tspan font-size="288px">A7</tspan>
                     </tspan>
                  </text>
               </g>
               <g id="adacvhw" class="barLine">
                  <path d="M9565 963 L9565 1683" stroke-width="27" />
               </g>
            </g>
            <g id="l1m6n5p3" class="measure">
               <g id="u1fen97m" class="staff">
                  <path d="M9578 963 L12531 963" stroke-width="13" />
                  <path d="M9578 1143 L12531 1143" stroke-width="13" />
                  <path d="M9578 1323 L12531 1323" stroke-width="13" />
                  <path d="M9578 1503 L12531 1503" stroke-width="13" />
                  <path d="M9578 1683 L12531 1683" stroke-width="13" />
                  <g class="ledgerLines above">
                     <path d="M10400 783 L10722 783" stroke-width="22" />
                  </g>
                  <g id="xdqmbqg" class="layer">
                     <g id="solo-b3-n1" class="note">
                        <g class="notehead">
                           <use xlink:href="#E0A4-x185sime" transform="translate(9758, 1143) scale(0.72, 0.72)" />
                        </g>
                        <g id="yfd7irl" class="stem">
                           <path d="M9975 1115 L9975 603" stroke-width="18" />
                        </g>
                     </g>
                     <g id="solo-b3-n2" class="note">
                        <g class="notehead">
                           <use xlink:href="#E0A4-x185sime" transform="translate(10448, 783) scale(0.72, 0.72)" />
                        </g>
                        <g id="z1nn36sn" class="stem">
                           <path d="M10665 755 L10665 333" stroke-width="18" />
                        </g>
                     </g>
                     <g id="solo-b3-n3" class="note">
                        <g class="notehead">
                           <use xlink:href="#E0A4-x185sime" transform="translate(11138, 1143) scale(0.72, 0.72)" />
                        </g>
                        <g id="a1gd4f62" class="stem">
                           <path d="M11355 1115 L11355 603" stroke-width="18" />
                        </g>
                     </g>
                     <g id="solo-b3-n4" class="rest">
                        <use xlink:href="#E4E5-x185sime" transform="translate(11828, 1323) scale(0.72, 0.72)" />
                     </g>
                  </g>
               </g>
               <g id="vdku93f" class="harm">
                  <text x="9758" y="197" font-size="0px">
                     <tspan id="w1g08vog" class="text">
                        <tspan font-size="288px">Dm7</tspan>
                     </tspan>
                  </text>
               </g>
               <g id="t1eud0id" class="barLine">
                  <path d="M12518 963 L12518 1683" stroke-width="27" />
               </g>
            </g>
            <g id="c6030zg" class="measure">
               <g id="lve1mnw" class="staff">
                  <path d="M12531 963 L15646 963" stroke-width="13" />
                  <path d="M12531 1143 L15646 1143" stroke-width="13" />
                  <path d="M12531 1323 L15646 1323" stroke-width="13" />
                  <path d="M12531 1503 L15646 1503" stroke-width="13" />
                  <path d="M12531 1683 L15646 1683" stroke-width="13" />
                  <g id="o9bfcfk" class="layer">
                     <g id="solo-b4-n1" class="note">
                        <g class="notehead">
                           <use xlink:href="#E0A4-x185sime" transform="translate(12711, 1503) scale(0.72, 0.72)" />
                        </g>
                        <g id="btb43m8" class="stem">
                           <path d="M12928 1475 L12928 873" stroke-width="18" />
                        </g>
                     </g>
                     <g id="solo-b4-n2" class="note">
                        <g class="notehead">
                           <use xlink:href="#E0A4-x185sime" transform="translate(13401, 1143) scale(0.72, 0.72)" />
                        </g>
                        <g id="c70hwi" class="stem">
                           <path d="M13618 1115 L13618 603" stroke-width="18" />
                        </g>
                     </g>
                     <g id="solo-b4-n3" class="note">
                        <g class="notehead">
                           <use xlink:href="#E0A4-x185sime" transform="translate(14091, 1503) scale(0.72, 0.72)" />
                        </g>
                        <g id="d1r65gcp" class="stem">
                           <path d="M14308 1475 L14308 873" stroke-width="18" />
                        </g>
                     </g>
                     <g id="solo-b4-n4" class="rest">
                        <use xlink:href="#E4E5-x185sime" transform="translate(14781, 1323) scale(0.72, 0.72)" />
                     </g>
                  </g>
               </g>
               <g id="m1a6i311" class="harm">
                  <text x="12711" y="197" font-size="0px">
                     <tspan id="nhb4nsh" class="text">
                        <tspan font-size="288px">G7</tspan>
                     </tspan>
                  </text>
               </g>
               <g id="k1623hjm" class="barLine">
                  <path d="M15471 963 L15471 1683" stroke-width="27" />
                  <path d="M15601 963 L15601 1683" stroke-width="90" />
               </g>
            </g>
            <g id="c15u5vve" class="systemMilestoneEnd t12jzbp0" />
            <g id="dineofq" class="systemMilestoneEnd kmtuit7" />
         </g>
         <g id="edyjii1" class="pageMilestoneEnd iq84xc9" />
         <g id="f1ylek70" class="pageMilestoneEnd hckl76t" />
      </g>
   </svg>
</svg>
