<svg width="840px" height="214px" version="1.1" xmlns="http://www.w3.org/2000/svg" xmlns:xlink="http://www.w3.org/1999/xlink" overflow="visible" id="anagm94">
   <desc>Engraved by Verovio 6.3.0-425dd7b</desc>
   <defs>
      <g id="E062-anagm94">
         <path transform="scale(1,-1)" d="M582 -120c0 32 26 58 58 58s58 -26 58 -58s-26 -58 -58 -58s-58 26 -58 58zM582 120c0 32 26 58 58 58s58 -26 58 -58s-26 -58 -58 -58s-58 26 -58 58zM158 96c51 0 73 -14 88 -49l16 -39c0 -17 -2 -30 -7 -40c-3 -11 -10 -21 -19 -31c-17 -18 -49 -43 -84 -43 c-55 0 -77 13 -112 44c-24 21 -35 55 -35 100c0 46 14 81 32 112c30 52 71 79 137 93l36 6l26 2c154 0 235 -68 274 -182c11 -32 18 -68 18 -107c0 -103 -26 -182 -68 -250c-89 -145 -234 -230 -412 -288l-30 -5c-9 0 -14 3 -14 8c3 10 5 11 10 16c35 15 70 30 96 44l78 43 c96 57 162 136 197 258c9 33 17 60 22 100c3 22 5 35 6 39c-7 69 -16 115 -23 140s-4 22 -16 40c-8 12 -19 23 -31 34c-24 21 -62 44 -118 44c-48 0 -84 -8 -113 -28c-28 -19 -42 -44 -42 -73v-16c2 -5 3 -9 4 -11c24 22 52 39 84 39z" />
      </g>
      <g id="E084-anagm94">
         <path transform="scale(1,-1)" d="M20 -78c84 97 114 180 134 329h170c-13 -32 -82 -132 -99 -151l-84 -97c-33 -36 -59 -63 -80 -81h162v102l127 123v-225h57v-39h-57v-34c0 -43 19 -65 57 -65v-34h-244v36c48 0 60 26 60 70v27h-203v39z" />
      </g>
      <g id="E0A4-anagm94">
         <path transform="scale(1,-1)" d="M0 -39c0 68 73 172 200 172c66 0 114 -37 114 -95c0 -84 -106 -171 -218 -171c-64 0 -96 30 -96 94z" />
      </g>
      <g id="E4E5-anagm94">
         <path transform="scale(1,-1)" d="M107 292c-13 24 -30 49 -52 71c-1 1 0 2 0 3l-2 2c3 3 4 4 6 4c12 0 26 -7 40 -20s44 -40 89 -81c26 -24 28 -29 46 -47c4 -4 8 -9 10 -14c6 -8 8 -16 8 -27c0 -19 -12 -40 -36 -61c-28 -23 -49 -38 -61 -73c-4 -11 -7 -27 -10 -50c13 -43 34 -83 59 -121 c31 -47 59 -79 101 -129c-8 0 -26 7 -54 20l-62 29l-21 6l-23 1c-25 0 -45 -10 -60 -30l-4 -14l-1 -12c0 -33 20 -56 39 -78c8 -9 17 -18 26 -26c17 -15 27 -24 28 -30l-3 -3c-11 5 -19 10 -25 15c-9 3 -37 21 -45 26c-24 14 -45 32 -63 51c-19 21 -37 44 -37 71 c0 63 27 95 80 95c41 0 86 -18 136 -52c-19 26 -37 48 -55 66c-23 23 -48 44 -73 65c-28 23 -47 40 -58 53s-17 26 -18 39c75 64 113 125 113 183c0 27 -7 48 -18 68z" />
      </g>
   </defs>
   <style type="text/css">#anagm94 g.ending, #anagm94 g.fing, #anagm94 g.reh, #anagm94 g.tempo {font-weight:bold;}#anagm94 g.dir, #anagm94 g.dynam, #anagm94 g.mNum {font-style:italic;}#anagm94 g.label {font-weight:normal;}#anagm94 ellipse, #anagm94 path, #anagm94 polygon, #anagm94 polyline, #anagm94 rect {stroke:currentColor}#anagm94 g.cursor {fill:dodgerblue; color:dodgerblue;}#anagm94 g.cursor.chord {fill:limegreen; color:limegreen;}</style>
   <svg class="definition-scale" color="black" font-family="Times, serif" viewBox="0 0 21000 5350">
      <g class="page-margin" transform="translate(500, 500)">
         <g id="k13kghnx" class="mdiv pageMilestone" />
         <g id="l1je1wue" class="score pageMilestone" />
         <g id="d14fmewa" class="system">
            <g id="o1bowp02" class="label">
               <text x="2169" y="1290" text-anchor="end" font-size="0px">
                  <tspan id="pdrh5xu" class="text">
                     <tspan font-size="288px">Bajo / contrabajo</tspan>
                  </tspan>
               </text>
            </g>
            <g id="nmn78tp" class="section systemMilestone" />
            <g id="o2gzb0e" class="pb" />
            <g id="s1j9gv3c" class="section systemMilestone" />
            <g id="dipimyf" class="measure">
               <g id="mh1ep1r" class="staff">
                  <path d="M2349 840 L7615 840" stroke-width="13" />
                  <path d="M2349 1020 L7615 1020" stroke-width="13" />
                  <path d="M2349 1200 L7615 1200" stroke-width="13" />
                  <path d="M2349 1380 L7615 1380" stroke-width="13" />
                  <path d="M2349 1560 L7615 1560" stroke-width="13" />
                  <g id="o1yex36a" class="clef">
                     <use xlink:href="#E062-anagm94" transform="translate(2437, 1020) scale(0.72, 0.72)" />
                  </g>
                  <g id="p1i1zhod" class="keySig" />
                  <g id="q1px5zx4" class="meterSig">
                     <use xlink:href="#E084-anagm94" transform="translate(3104, 1020) scale(0.72, 0.72)" />
                     <use xlink:href="#E084-anagm94" transform="translate(3104, 1380) scale(0.72, 0.72)" />
                  </g>
                  <g id="rvc229p" class="layer">
                     <g id="pattern-b1-n1" class="note">
                        <g class="notehead">
                           <use xlink:href="#E0A4-anagm94" transform="translate(3738, 1290) scale(0.72, 0.72)" />
                        </g>
                        <g id="u1l6i1yj" class="stem">
                           <path d="M3955 1262 L3955 660" stroke-width="18" />
                        </g>
                        <g id="t1fvilp6" class="verse">
                           <g id="u1u2h6kn" class="syl">
                              <text x="3674" y="1975" font-size="0px">
                                 <tspan id="v1b70hyu" class="text">
                                    <tspan font-size="288px">Do</tspan>
                                 </tspan>
                              </text>
                           </g>
                        </g>
                     </g>
                     <g id="pattern-b1-n2" class="note">
                        <g class="notehead">
                           <use xlink:href="#E0A4-anagm94" transform="translate(4704, 1200) scale(0.72, 0.72)" />
                        </g>
                        <g id="v1pcos0x" class="stem">
                           <path d="M4921 1172 L4921 600" stroke-width="18" />
                        </g>
                        <g id="x1074i43" class="verse">
                           <g id="ytvlidr" class="syl">
                              <text x="4640" y="1975" font-size="0px">
                                 <tspan id="zd7bal9" class="text">
                                    <tspan font-size="288px">Re</tspan>
                                 </tspan>
                              </text>
                           </g>
                        </g>
                     </g>
                     <g id="pattern-b1-n3" class="note">
                        <g class="notehead">
                           <use xlink:href="#E0A4-anagm94" transform="translate(5670, 1110) scale(0.72, 0.72)" />
                        </g>
                        <g id="w1j5ics6" class="stem">
                           <path d="M5887 1082 L5887 540" stroke-width="18" />
                        </g>
                        <g id="b2hzlwf" class="verse">
                           <g id="cfvszuj" class="syl">
                              <text x="5606" y="1975" font-size="0px">
                                 <tspan id="d1ldp6yz" class="text">
                                    <tspan font-size="288px">Mi</tspan>
                                 </tspan>
                              </text>
                           </g>
                        </g>
                     </g>
                     <g id="pattern-b1-n4" class="note">
                        <g class="notehead">
                           <use xlink:href="#E0A4-anagm94" transform="translate(6636, 1200) scale(0.72, 0.72)" />
                        </g>
                        <g id="x1atrlos" class="stem">
                           <path d="M6853 1172 L6853 600" stroke-width="18" />
                        </g>
                        <g id="f1e7e6o6" class="verse">
                           <g id="g19mr1d" class="syl">
                              <text x="6572" y="1975" font-size="0px">
                                 <tspan id="hu6a78" class="text">
                                    <tspan font-size="288px">Re</tspan>
                                 </tspan>
                              </text>
                           </g>
                        </g>
                     </g>
                  </g>
               </g>
               <g id="n9xozhz" class="tempo" xml:lang="it">
                  <text x="3176" y="547" font-size="0px">
                     <tspan id="o1e06y8f" class="text">
                        <tspan font-size="288px">Negra = 64</tspan>
                     </tspan>
                  </text>
               </g>
               <g id="p1px7226" class="harm">
                  <text x="3738" y="195" font-size="0px">
                     <tspan id="q3cnuf" class="text">
                        <tspan font-size="288px">C</tspan>
                     </tspan>
                  </text>
               </g>
               <g id="l1461cnb" class="barLine">
                  <path d="M7602 840 L7602 1560" stroke-width="27" />
               </g>
            </g>
            <g id="i1i849s0" class="measure">
               <g id="r1pkob91" class="staff">
                  <path d="M7615 840 L11744 840" stroke-width="13" />
                  <path d="M7615 1020 L11744 1020" stroke-width="13" />
                  <path d="M7615 1200 L11744 1200" stroke-width="13" />
                  <path d="M7615 1380 L11744 1380" stroke-width="13" />
                  <path d="M7615 1560 L11744 1560" stroke-width="13" />
                  <g id="ubkge7e" class="layer">
                     <g id="pattern-b2-n1" class="note">
                        <g class="notehead">
                           <use xlink:href="#E0A4-anagm94" transform="translate(7867, 1110) scale(0.72, 0.72)" />
                        </g>
                        <g id="yg4kx9k" class="stem">
                           <path d="M8084 1082 L8084 540" stroke-width="18" />
                        </g>
                        <g id="wsbf8tc" class="verse">
                           <g id="xtmce9a" class="syl">
                              <text x="7803" y="1975" font-size="0px">
                                 <tspan id="ygbv32y" class="text">
                                    <tspan font-size="288px">Mi</tspan>
                                 </tspan>
                              </text>
                           </g>
                        </g>
                     </g>
                     <g id="pattern-b2-n2" class="note">
                        <g class="notehead">
                           <use xlink:href="#E0A4-anagm94" transform="translate(8833, 1020) scale(0.72, 0.72)" />
                        </g>
                        <g id="z1w6i4si" class="stem">
                           <path d="M9050 992 L9050 480" stroke-width="18" />
                        </g>
                        <g id="a6dm202" class="verse">
                           <g id="b1qqkck9" class="syl">
                              <text x="8769" y="1975" font-size="0px">
                                 <tspan id="c8zi5ip" class="text">
                                    <tspan font-size="288px">Fa</tspan>
                                 </tspan>
                              </text>
                           </g>
                        </g>
                     </g>
                     <g id="pattern-b2-n3" class="note">
                        <g class="notehead">
                           <use xlink:href="#E0A4-anagm94" transform="translate(9799, 1110) scale(0.72, 0.72)" />
                        </g>
                        <g id="a25bsm7" class="stem">
                           <path d="M10016 1082 L10016 540" stroke-width="18" />
                        </g>
                        <g id="enfv4fa" class="verse">
                           <g id="fkg0ly3" class="syl">
                              <text x="9735" y="1975" font-size="0px">
                                 <tspan id="ge6dmvn" class="text">
                                    <tspan font-size="288px">Mi</tspan>
                                 </tspan>
                              </text>
                           </g>
                        </g>
                     </g>
                     <g id="pattern-b2-n4" class="note">
                        <g class="notehead">
                           <use xlink:href="#E0A4-anagm94" transform="translate(10765, 1020) scale(0.72, 0.72)" />
                        </g>
                        <g id="bt85xzk" class="stem">
                           <path d="M10982 992 L10982 480" stroke-width="18" />
                        </g>
                        <g id="i1bkyfj7" class="verse">
                           <g id="j1ihexnd" class="syl">
                              <text x="10701" y="1975" font-size="0px">
                                 <tspan id="k1pkkyut" class="text">
                                    <tspan font-size="288px">Fa</tspan>
                                 </tspan>
                              </text>
                           </g>
                        </g>
                     </g>
                  </g>
               </g>
               <g id="s1pe9yh9" class="harm">
                  <text x="7867" y="195" font-size="0px">
                     <tspan id="t1mv1688" class="text">
                        <tspan font-size="288px">C</tspan>
                     </tspan>
                  </text>
               </g>
               <g id="q103srp5" class="barLine">
                  <path d="M11731 840 L11731 1560" stroke-width="27" />
               </g>
            </g>
            <g id="l1pxt4ts" class="measure">
               <g id="uogak8r" class="staff">
                  <path d="M11744 840 L15873 840" stroke-width="13" />
                  <path d="M11744 1020 L15873 1020" stroke-width="13" />
                  <path d="M11744 1200 L15873 1200" stroke-width="13" />
                  <path d="M11744 1380 L15873 1380" stroke-width="13" />
                  <path d="M11744 1560 L15873 1560" stroke-width="13" />
                  <g id="xkx96aq" class="layer">
                     <g id="pattern-b3-n1" class="note">
                        <g class="notehead">
                           <use xlink:href="#E0A4-anagm94" transform="translate(11996, 930) scale(0.72, 0.72)" />
                        </g>
                        <g id="cfl70mb" class="stem">
                           <path d="M12213 902 L12213 420" stroke-width="18" />
                        </g>
                        <g id="zipzwoy" class="verse">
                           <g id="a3u967s" class="syl">
                              <text x="11932" y="1975" font-size="0px">
                                 <tspan id="bdinahx" class="text">
                                    <tspan font-size="288px">Sol</tspan>
                                 </tspan>
                              </text>
                           </g>
                        </g>
                     </g>
                     <g id="pattern-b3-n2" class="note">
                        <g class="notehead">
                           <use xlink:href="#E0A4-anagm94" transform="translate(12962, 1020) scale(0.72, 0.72)" />
                        </g>
                        <g id="d1g6jysu" class="stem">
                           <path d="M13179 992 L13179 480" stroke-width="18" />
                        </g>
                        <g id="d18jfnvh" class="verse">
                           <g id="efiaumg" class="syl">
                              <text x="12898" y="1975" font-size="0px">
                                 <tspan id="f1gea81f" class="text">
                                    <tspan font-size="288px">Fa</tspan>
                                 </tspan>
                              </text>
                           </g>
                        </g>
                     </g>
                     <g id="pattern-b3-n3" class="note">
                        <g class="notehead">
                           <use xlink:href="#E0A4-anagm94" transform="translate(13928, 930) scale(0.72, 0.72)" />
                        </g>
                        <g id="e1rcfcuv" class="stem">
                           <path d="M14145 902 L14145 420" stroke-width="18" />
                        </g>
                        <g id="h1eocxp4" class="verse">
                           <g id="izc92t4" class="syl">
                              <text x="13864" y="1975" font-size="0px">
                                 <tspan id="jog7k1c" class="text">
                                    <tspan font-size="288px">Sol</tspan>
                                 </tspan>
                              </text>
                           </g>
                        </g>
                     </g>
                     <g id="pattern-b3-n4" class="note">
                        <g class="notehead">
                           <use xlink:href="#E0A4-anagm94" transform="translate(14894, 840) scale(0.72, 0.72)" />
                        </g>
                        <g id="f1h1y1n0" class="stem">
                           <path d="M15111 812 L15111 360" stroke-width="18" />
                        </g>
                        <g id="lqyh7rc" class="verse">
                           <g id="m1bqz01c" class="syl">
                              <text x="14830" y="1975" font-size="0px">
                                 <tspan id="n18qr70k" class="text">
                                    <tspan font-size="288px">La</tspan>
                                 </tspan>
                              </text>
                           </g>
                        </g>
                     </g>
                  </g>
               </g>
               <g id="vhmwpaa" class="harm">
                  <text x="11996" y="195" font-size="0px">
                     <tspan id="wqovlyv" class="text">
                        <tspan font-size="288px">C</tspan>
                     </tspan>
                  </text>
               </g>
               <g id="t1f1pcba" class="barLine">
                  <path d="M15860 840 L15860 1560" stroke-width="27" />
               </g>
            </g>
            <g id="o1b36dsn" class="measure">
               <g id="x1qhkju4" class="staff">
                  <path d="M15873 840 L20002 840" stroke-width="13" />
                  <path d="M15873 1020 L20002 1020" stroke-width="13" />
                  <path d="M15873 1200 L20002 1200" stroke-width="13" />
                  <path d="M15873 1380 L20002 1380" stroke-width="13" />
                  <path d="M15873 1560 L20002 1560" stroke-width="13" />
                  <g id="a192fo62" class="layer">
                     <g id="pattern-b4-n1" class="note">
                        <g class="notehead">
                           <use xlink:href="#E0A4-anagm94" transform="translate(16125, 930) scale(0.72, 0.72)" />
                        </g>
                        <g id="g5e7f6n" class="stem">
                           <path d="M16342 902 L16342 420" stroke-width="18" />
                        </g>
                        <g id="c1tid0fv" class="verse">
                           <g id="d1qkx2jw" class="syl">
                              <text x="16061" y="1975" font-size="0px">
                                 <tspan id="e14gkfkh" class="text">
                                    <tspan font-size="288px">Sol</tspan>
                                 </tspan>
                              </text>
                           </g>
                        </g>
                     </g>
                     <g id="pattern-b4-n2" class="note">
                        <g class="notehead">
                           <use xlink:href="#E0A4-anagm94" transform="translate(17091, 840) scale(0.72, 0.72)" />
                        </g>
                        <g id="hxzvcdv" class="stem">
                           <path d="M17308 812 L17308 360" stroke-width="18" />
                        </g>
                        <g id="g11ng0f5" class="verse">
                           <g id="h1xuxnl2" class="syl">
                              <text x="17027" y="1975" font-size="0px">
                                 <tspan id="ilqj7bl" class="text">
                                    <tspan font-size="288px">La</tspan>
                                 </tspan>
                              </text>
                           </g>
                        </g>
                     </g>
                     <g id="pattern-b4-n3" class="note">
                        <g class="notehead">
                           <use xlink:href="#E0A4-anagm94" transform="translate(18057, 750) scale(0.72, 0.72)" />
                        </g>
                        <g id="i1kuw82h" class="stem">
                           <path d="M18274 722 L18274 300" stroke-width="18" />
                        </g>
                        <g id="k1bplbrg" class="verse">
                           <g id="lwh5ckb" class="syl">
                              <text x="17993" y="1975" font-size="0px">
                                 <tspan id="m9uiz88" class="text">
                                    <tspan font-size="288px">Si</tspan>
                                 </tspan>
                              </text>
                           </g>
                        </g>
                     </g>
                     <g id="pattern-b4-n4" class="note">
                        <g class="notehead">
                           <use xlink:href="#E0A4-anagm94" transform="translate(19023, 840) scale(0.72, 0.72)" />
                        </g>
                        <g id="j1p2mlli" class="stem">
                           <path d="M19240 812 L19240 360" stroke-width="18" />
                        </g>
                        <g id="o5kf6dm" class="verse">
                           <g id="p40o1eh" class="syl">
                              <text x="18959" y="1975" font-size="0px">
                                 <tspan id="q1bezzc1" class="text">
                                    <tspan font-size="288px">La</tspan>
                                 </tspan>
                              </text>
                           </g>
                        </g>
                     </g>
                  </g>
               </g>
               <g id="y1q42m1g" class="harm">
                  <text x="16125" y="195" font-size="0px">
                     <tspan id="zti2gir" class="text">
                        <tspan font-size="288px">C</tspan>
                     </tspan>
                  </text>
               </g>
               <g id="wddfc0r" class="barLine">
                  <path d="M19989 840 L19989 1560" stroke-width="27" />
               </g>
            </g>
         </g>
         <g id="ggkgbou" class="system">
            <g id="bg45j32" class="sb" />
            <g id="rp7l440" class="measure">
               <g id="n1o78zzi" class="mNum autogenerated">
                  <text y="2927" text-anchor="middle" font-size="0px">
                     <tspan id="o19np2dj" class="text">
                        <tspan font-size="230px">5</tspan>
                     </tspan>
                  </text>
               </g>
               <g id="a5sfm5r" class="staff">
                  <path d="M0 3099 L3794 3099" stroke-width="13" />
                  <path d="M0 3279 L3794 3279" stroke-width="13" />
                  <path d="M0 3459 L3794 3459" stroke-width="13" />
                  <path d="M0 3639 L3794 3639" stroke-width="13" />
                  <path d="M0 3819 L3794 3819" stroke-width="13" />
                  <g id="v1njlwbm" class="clef">
                     <use xlink:href="#E062-anagm94" transform="translate(88, 3279) scale(0.72, 0.72)" />
                  </g>
                  <g id="w1bcxdog" class="keySig" />
                  <g class="ledgerLines above">
                     <path d="M1501 2919 L1823 2919" stroke-width="22" />
                     <path d="M2191 2919 L2513 2919" stroke-width="22" />
                  </g>
                  <g id="esljsgz" class="layer">
                     <g id="pattern-b5-n1" class="note">
                        <g class="notehead">
                           <use xlink:href="#E0A4-anagm94" transform="translate(859, 3009) scale(0.72, 0.72)" />
                        </g>
                        <g id="k1yf4gzk" class="stem">
                           <path d="M1076 2981 L1076 2559" stroke-width="18" />
                        </g>
                        <g id="g1mdxgst" class="verse">
                           <g id="huctzxe" class="syl">
                              <text x="795" y="4234" font-size="0px">
                                 <tspan id="iuzbnj9" class="text">
                                    <tspan font-size="288px">Si</tspan>
                                 </tspan>
                              </text>
                           </g>
                        </g>
                     </g>
                     <g id="pattern-b5-n2" class="note">
                        <g class="notehead">
                           <use xlink:href="#E0A4-anagm94" transform="translate(1549, 2919) scale(0.72, 0.72)" />
                        </g>
                        <g id="l8rwxi0" class="stem">
                           <path d="M1766 2891 L1766 2469" stroke-width="18" />
                        </g>
                        <g id="kuc4tmy" class="verse">
                           <g id="lgjeyoo" class="syl">
                              <text x="1485" y="4234" font-size="0px">
                                 <tspan id="maufycx" class="text">
                                    <tspan font-size="288px">Do</tspan>
                                 </tspan>
                              </text>
                           </g>
                        </g>
                     </g>
                     <g id="pattern-b5-n3" class="note">
                        <g class="notehead">
                           <use xlink:href="#E0A4-anagm94" transform="translate(2239, 2919) scale(0.72, 0.72)" />
                        </g>
                        <g id="m1mp9bp6" class="stem">
                           <path d="M2456 2891 L2456 2469" stroke-width="18" />
                        </g>
                        <g id="oec52ce" class="verse">
                           <g id="p7u8k2q" class="syl">
                              <text x="2175" y="4234" font-size="0px">
                                 <tspan id="qj8nho3" class="text">
                                    <tspan font-size="288px">Do</tspan>
                                 </tspan>
                              </text>
                           </g>
                        </g>
                     </g>
                     <g id="pattern-b5-n4" class="rest">
                        <use xlink:href="#E4E5-anagm94" transform="translate(2929, 3459) scale(0.72, 0.72)" />
                     </g>
                  </g>
               </g>
               <g id="c1npsiyd" class="harm">
                  <text x="859" y="2761" font-size="0px">
                     <tspan id="d1hjo09h" class="text">
                        <tspan font-size="288px">C</tspan>
                     </tspan>
                  </text>
               </g>
               <g id="z1qxrd41" class="barLine">
                  <path d="M3619 3099 L3619 3819" stroke-width="27" />
                  <path d="M3749 3099 L3749 3819" stroke-width="90" />
               </g>
            </g>
            <g id="bw2fzxe" class="systemMilestoneEnd s1j9gv3c" />
            <g id="cpy4wbh" class="systemMilestoneEnd nmn78tp" />
         </g>
         <g id="d1vywg8x" class="pageMilestoneEnd l1je1wue" />
         <g id="e1jxpewp" class="pageMilestoneEnd k13kghnx" />
      </g>
   </svg>
</svg>
