<svg width="840px" height="124px" version="1.1" xmlns="http://www.w3.org/2000/svg" xmlns:xlink="http://www.w3.org/1999/xlink" overflow="visible" id="glgo77w">
   <desc>Engraved by Verovio 6.3.0-425dd7b</desc>
   <defs>
      <g id="E062-glgo77w">
         <path transform="scale(1,-1)" d="M582 -120c0 32 26 58 58 58s58 -26 58 -58s-26 -58 -58 -58s-58 26 -58 58zM582 120c0 32 26 58 58 58s58 -26 58 -58s-26 -58 -58 -58s-58 26 -58 58zM158 96c51 0 73 -14 88 -49l16 -39c0 -17 -2 -30 -7 -40c-3 -11 -10 -21 -19 -31c-17 -18 -49 -43 -84 -43 c-55 0 -77 13 -112 44c-24 21 -35 55 -35 100c0 46 14 81 32 112c30 52 71 79 137 93l36 6l26 2c154 0 235 -68 274 -182c11 -32 18 -68 18 -107c0 -103 -26 -182 -68 -250c-89 -145 -234 -230 -412 -288l-30 -5c-9 0 -14 3 -14 8c3 10 5 11 10 16c35 15 70 30 96 44l78 43 c96 57 162 136 197 258c9 33 17 60 22 100c3 22 5 35 6 39c-7 69 -16 115 -23 140s-4 22 -16 40c-8 12 -19 23 -31 34c-24 21 -62 44 -118 44c-48 0 -84 -8 -113 -28c-28 -19 -42 -44 -42 -73v-16c2 -5 3 -9 4 -11c24 22 52 39 84 39z" />
      </g>
      <g id="E084-glgo77w">
         <path transform="scale(1,-1)" d="M20 -78c84 97 114 180 134 329h170c-13 -32 -82 -132 -99 -151l-84 -97c-33 -36 -59 -63 -80 -81h162v102l127 123v-225h57v-39h-57v-34c0 -43 19 -65 57 -65v-34h-244v36c48 0 60 26 60 70v27h-203v39z" />
      </g>
      <g id="E0A4-glgo77w">
         <path transform="scale(1,-1)" d="M0 -39c0 68 73 172 200 172c66 0 114 -37 114 -95c0 -84 -106 -171 -218 -171c-64 0 -96 30 -96 94z" />
      </g>
      <g id="E4E5-glgo77w">
         <path transform="scale(1,-1)" d="M107 292c-13 24 -30 49 -52 71c-1 1 0 2 0 3l-2 2c3 3 4 4 6 4c12 0 26 -7 40 -20s44 -40 89 -81c26 -24 28 -29 46 -47c4 -4 8 -9 10 -14c6 -8 8 -16 8 -27c0 -19 -12 -40 -36 -61c-28 -23 -49 -38 -61 -73c-4 -11 -7 -27 -10 -50c13 -43 34 -83 59 -121 c31 -47 59 -79 101 -129c-8 0 -26 7 -54 20l-62 29l-21 6l-23 1c-25 0 -45 -10 -60 -30l-4 -14l-1 -12c0 -33 20 -56 39 -78c8 -9 17 -18 26 -26c17 -15 27 -24 28 -30l-3 -3c-11 5 -19 10 -25 15c-9 3 -37 21 -45 26c-24 14 -45 32 -63 51c-19 21 -37 44 -37 71 c0 63 27 95 80 95c41 0 86 -18 136 -52c-19 26 -37 48 -55 66c-23 23 -48 44 -73 65c-28 23 -47 40 -58 53s-17 26 -18 39c75 64 113 125 113 183c0 27 -7 48 -18 68z" />
      </g>
   </defs>
   <style type="text/css">#glgo77w g.ending, #glgo77w g.fing, #glgo77w g.reh, #glgo77w g.tempo {font-weight:bold;}#glgo77w g.dir, #glgo77w g.dynam, #glgo77w g.mNum {font-style:italic;}#glgo77w g.label {font-weight:normal;}#glgo77w ellipse, #glgo77w path, #glgo77w polygon, #glgo77w polyline, #glgo77w rect {stroke:currentColor}#glgo77w g.cursor {fill:dodgerblue; color:dodgerblue;}#glgo77w g.cursor.chord {fill:limegreen; color:limegreen;}</style>
   <svg class="definition-scale" color="black" font-family="Times, serif" viewBox="0 0 21000 3100">
      <g class="page-margin" transform="translate(500, 500)">
         <g id="q1pdy24y" class="mdiv pageMilestone" />
         <g id="r1bfi3ew" class="score pageMilestone" />
         <g id="ld3ixz5" class="system">
            <g id="vogz1pr" class="label">
               <text x="2169" y="1290" text-anchor="end" font-size="0px">
                  <tspan id="wkvz05u" class="text">
                     <tspan font-size="288px">Bajo / contrabajo</tspan>
                  </tspan>
               </text>
            </g>
            <g id="t10b79w0" class="section systemMilestone" />
            <g id="k3sp9c1" class="section systemMilestone" />
            <g id="ix066xn" class="measure">
               <g id="r1aud5hi" class="staff">
                  <path d="M2349 840 L6439 840" stroke-width="13" />
                  <path d="M2349 1020 L6439 1020" stroke-width="13" />
                  <path d="M2349 1200 L6439 1200" stroke-width="13" />
                  <path d="M2349 1380 L6439 1380" stroke-width="13" />
                  <path d="M2349 1560 L6439 1560" stroke-width="13" />
                  <g id="vk8sedv" class="clef">
                     <use xlink:href="#E062-glgo77w" transform="translate(2437, 1020) scale(0.72, 0.72)" />
                  </g>
                  <g id="w1u3g4ob" class="keySig" />
                  <g id="xxqocuh" class="meterSig">
                     <use xlink:href="#E084-glgo77w" transform="translate(3104, 1020) scale(0.72, 0.72)" />
                     <use xlink:href="#E084-glgo77w" transform="translate(3104, 1380) scale(0.72, 0.72)" />
                  </g>
                  <g id="w1fl6to5" class="layer">
                     <g id="solo-b1-n1" class="note">
                        <g class="notehead">
                           <use xlink:href="#E0A4-glgo77w" transform="translate(3666, 1290) scale(0.72, 0.72)" />
                        </g>
                        <g id="j1vw0yvu" class="stem">
                           <path d="M3883 1262 L3883 660" stroke-width="18" />
                        </g>
                        <g id="y17v83qz" class="verse">
                           <g id="zeimtso" class="syl">
                              <text x="3602" y="1980" font-size="0px">
                                 <tspan id="a1xyb8dt" class="text">
                                    <tspan font-size="288px">Do</tspan>
                                 </tspan>
                              </text>
                           </g>
                        </g>
                     </g>
                     <g id="solo-b1-n2" class="note">
                        <g class="notehead">
                           <use xlink:href="#E0A4-glgo77w" transform="translate(4356, 1110) scale(0.72, 0.72)" />
                        </g>
                        <g id="kxe15qe" class="stem">
                           <path d="M4573 1082 L4573 540" stroke-width="18" />
                        </g>
                        <g id="cakxzgf" class="verse">
                           <g id="d1r2kijo" class="syl">
                              <text x="4292" y="1980" font-size="0px">
                                 <tspan id="e1n7zslv" class="text">
                                    <tspan font-size="288px">Mi</tspan>
                                 </tspan>
                              </text>
                           </g>
                        </g>
                     </g>
                     <g id="solo-b1-n3" class="note">
                        <g class="notehead">
                           <use xlink:href="#E0A4-glgo77w" transform="translate(5046, 930) scale(0.72, 0.72)" />
                        </g>
                        <g id="l10tccnb" class="stem">
                           <path d="M5263 902 L5263 420" stroke-width="18" />
                        </g>
                        <g id="g1e9krl4" class="verse">
                           <g id="h10liy0x" class="syl">
                              <text x="4982" y="1980" font-size="0px">
                                 <tspan id="i1e0jrch" class="text">
                                    <tspan font-size="288px">Sol</tspan>
                                 </tspan>
                              </text>
                           </g>
                        </g>
                     </g>
                     <g id="solo-b1-n4" class="rest">
                        <use xlink:href="#E4E5-glgo77w" transform="translate(5736, 1200) scale(0.72, 0.72)" />
                     </g>
                  </g>
               </g>
               <g id="sfpfs3q" class="tempo" xml:lang="it">
                  <text x="3104" y="547" font-size="0px">
                     <tspan id="t13v96sp" class="text">
                        <tspan font-size="288px">Negra = 64</tspan>
                     </tspan>
                  </text>
               </g>
               <g id="u1qaon1g" class="harm">
                  <text x="3666" y="195" font-size="0px">
                     <tspan id="vtv9ebe" class="text">
                        <tspan font-size="288px">C</tspan>
                     </tspan>
                  </text>
               </g>
               <g id="q5ijzif" class="barLine">
                  <path d="M6426 840 L6426 1560" stroke-width="27" />
               </g>
            </g>
            <g id="kkg7nnb" class="measure">
               <g id="tr292lr" class="staff">
                  <path d="M6439 840 L9392 840" stroke-width="13" />
                  <path d="M6439 1020 L9392 1020" stroke-width="13" />
                  <path d="M6439 1200 L9392 1200" stroke-width="13" />
                  <path d="M6439 1380 L9392 1380" stroke-width="13" />
                  <path d="M6439 1560 L9392 1560" stroke-width="13" />
                  <g id="w170og55" class="layer">
                     <g id="solo-b2-n1" class="note">
                        <g class="notehead">
                           <use xlink:href="#E0A4-glgo77w" transform="translate(6619, 1470) scale(0.72, 0.72)" />
                        </g>
                        <g id="m1yk1cvo" class="stem">
                           <path d="M6836 1442 L6836 840" stroke-width="18" />
                        </g>
                        <g id="y1592rd9" class="verse">
                           <g id="z1y7nno0" class="syl">
                              <text x="6555" y="1980" font-size="0px">
                                 <tspan id="a1pchn64" class="text">
                                    <tspan font-size="288px">La</tspan>
                                 </tspan>
                              </text>
                           </g>
                        </g>
                     </g>
                     <g id="solo-b2-n2" class="note">
                        <g class="notehead">
                           <use xlink:href="#E0A4-glgo77w" transform="translate(7309, 1290) scale(0.72, 0.72)" />
                        </g>
                        <g id="n17231xt" class="stem">
                           <path d="M7526 1262 L7526 660" stroke-width="18" />
                        </g>
                        <g id="c13vdu1z" class="verse">
                           <g id="d1r6w2un" class="syl">
                              <text x="7245" y="1980" font-size="0px">
                                 <tspan id="e18zy6sj" class="text">
                                    <tspan font-size="288px">Do</tspan>
                                 </tspan>
                              </text>
                           </g>
                        </g>
                     </g>
                     <g id="solo-b2-n3" class="note">
                        <g class="notehead">
                           <use xlink:href="#E0A4-glgo77w" transform="translate(7999, 1110) scale(0.72, 0.72)" />
                        </g>
                        <g id="oqqk8kt" class="stem">
                           <path d="M8216 1082 L8216 540" stroke-width="18" />
                        </g>
                        <g id="grbw86p" class="verse">
                           <g id="hui2fb0" class="syl">
                              <text x="7935" y="1980" font-size="0px">
                                 <tspan id="i84rgn3" class="text">
                                    <tspan font-size="288px">Mi</tspan>
                                 </tspan>
                              </text>
                           </g>
                        </g>
                     </g>
                     <g id="solo-b2-n4" class="rest">
                        <use xlink:href="#E4E5-glgo77w" transform="translate(8689, 1200) scale(0.72, 0.72)" />
                     </g>
                  </g>
               </g>
               <g id="u1p9kqfj" class="harm">
                  <text x="6619" y="195" font-size="0px">
                     <tspan id="v1hld6zf" class="text">
                        <tspan font-size="288px">Am</tspan>
                     </tspan>
                  </text>
               </g>
               <g id="s2xf4sj" class="barLine">
                  <path d="M9379 840 L9379 1560" stroke-width="27" />
               </g>
            </g>
            <g id="k1vnnheg" class="measure">
               <g id="tzsih80" class="staff">
                  <path d="M9392 840 L12345 840" stroke-width="13" />
                  <path d="M9392 1020 L12345 1020" stroke-width="13" />
                  <path d="M9392 1200 L12345 1200" stroke-width="13" />
                  <path d="M9392 1380 L12345 1380" stroke-width="13" />
                  <path d="M9392 1560 L12345 1560" stroke-width="13" />
                  <g id="w16ag8xp" class="layer">
                     <g id="solo-b3-n1" class="note">
                        <g class="notehead">
                           <use xlink:href="#E0A4-glgo77w" transform="translate(9572, 1650) scale(0.72, 0.72)" />
                        </g>
                        <g id="p1yqlbay" class="stem">
                           <path d="M9789 1622 L9789 1020" stroke-width="18" />
                        </g>
                        <g id="yjxh2ly" class="verse">
                           <g id="zke96xj" class="syl">
                              <text x="9508" y="1980" font-size="0px">
                                 <tspan id="ao94jic" class="text">
                                    <tspan font-size="288px">Fa</tspan>
                                 </tspan>
                              </text>
                           </g>
                        </g>
                     </g>
                     <g id="solo-b3-n2" class="note">
                        <g class="notehead">
                           <use xlink:href="#E0A4-glgo77w" transform="translate(10262, 1470) scale(0.72, 0.72)" />
                        </g>
                        <g id="q1rnn1uj" class="stem">
                           <path d="M10479 1442 L10479 840" stroke-width="18" />
                        </g>
                        <g id="c1qud19e" class="verse">
                           <g id="d153ci5z" class="syl">
                              <text x="10198" y="1980" font-size="0px">
                                 <tspan id="eg0fy1r" class="text">
                                    <tspan font-size="288px">La</tspan>
                                 </tspan>
                              </text>
                           </g>
                        </g>
                     </g>
                     <g id="solo-b3-n3" class="note">
                        <g class="notehead">
                           <use xlink:href="#E0A4-glgo77w" transform="translate(10952, 1290) scale(0.72, 0.72)" />
                        </g>
                        <g id="r1f5xc7y" class="stem">
                           <path d="M11169 1262 L11169 660" stroke-width="18" />
                        </g>
                        <g id="g1qi56zx" class="verse">
                           <g id="h1cffzcs" class="syl">
                              <text x="10888" y="1980" font-size="0px">
                                 <tspan id="i1e701mv" class="text">
                                    <tspan font-size="288px">Do</tspan>
                                 </tspan>
                              </text>
                           </g>
                        </g>
                     </g>
                     <g id="solo-b3-n4" class="rest">
                        <use xlink:href="#E4E5-glgo77w" transform="translate(11642, 1200) scale(0.72, 0.72)" />
                     </g>
                  </g>
               </g>
               <g id="u1p7qg33" class="harm">
                  <text x="9572" y="195" font-size="0px">
                     <tspan id="v1boiqio" class="text">
                        <tspan font-size="288px">F</tspan>
                     </tspan>
                  </text>
               </g>
               <g id="szuyw3w" class="barLine">
                  <path d="M12332 840 L12332 1560" stroke-width="27" />
               </g>
            </g>
            <g id="kdo5k6n" class="measure">
               <g id="tzgsgy5" class="staff">
                  <path d="M12345 840 L15460 840" stroke-width="13" />
                  <path d="M12345 1020 L15460 1020" stroke-width="13" />
                  <path d="M12345 1200 L15460 1200" stroke-width="13" />
                  <path d="M12345 1380 L15460 1380" stroke-width="13" />
                  <path d="M12345 1560 L15460 1560" stroke-width="13" />
                  <g id="wfer9ky" class="layer">
                     <g id="solo-b4-n1" class="note">
                        <g class="notehead">
                           <use xlink:href="#E0A4-glgo77w" transform="translate(12525, 1560) scale(0.72, 0.72)" />
                        </g>
                        <g id="s1t4fziq" class="stem">
                           <path d="M12742 1532 L12742 930" stroke-width="18" />
                        </g>
                        <g id="y1ouz2mu" class="verse">
                           <g id="ztxolko" class="syl">
                              <text x="12461" y="1980" font-size="0px">
                                 <tspan id="a1tc17dg" class="text">
                                    <tspan font-size="288px">Sol</tspan>
                                 </tspan>
                              </text>
                           </g>
                        </g>
                     </g>
                     <g id="solo-b4-n2" class="note">
                        <g class="notehead">
                           <use xlink:href="#E0A4-glgo77w" transform="translate(13215, 1380) scale(0.72, 0.72)" />
                        </g>
                        <g id="ta68h4f" class="stem">
                           <path d="M13432 1352 L13432 750" stroke-width="18" />
                        </g>
                        <g id="c1b9x3mh" class="verse">
                           <g id="d17q90di" class="syl">
                              <text x="13151" y="1980" font-size="0px">
                                 <tspan id="e1784qhb" class="text">
                                    <tspan font-size="288px">Si</tspan>
                                 </tspan>
                              </text>
                           </g>
                        </g>
                     </g>
                     <g id="solo-b4-n3" class="note">
                        <g class="notehead">
                           <use xlink:href="#E0A4-glgo77w" transform="translate(13905, 1200) scale(0.72, 0.72)" />
                        </g>
                        <g id="u1t3onn3" class="stem">
                           <path d="M14122 1172 L14122 600" stroke-width="18" />
                        </g>
                        <g id="g1cf6ap" class="verse">
                           <g id="h1ltx9m1" class="syl">
                              <text x="13841" y="1980" font-size="0px">
                                 <tspan id="i12aw3j4" class="text">
                                    <tspan font-size="288px">Re</tspan>
                                 </tspan>
                              </text>
                           </g>
                        </g>
                     </g>
                     <g id="solo-b4-n4" class="rest">
                        <use xlink:href="#E4E5-glgo77w" transform="translate(14595, 1200) scale(0.72, 0.72)" />
                     </g>
                  </g>
               </g>
               <g id="u1o3709c" class="harm">
                  <text x="12525" y="195" font-size="0px">
                     <tspan id="vpg6ai7" class="text">
                        <tspan font-size="288px">G</tspan>
                     </tspan>
                  </text>
               </g>
               <g id="sro2yip" class="barLine">
                  <path d="M15285 840 L15285 1560" stroke-width="27" />
                  <path d="M15415 840 L15415 1560" stroke-width="90" />
               </g>
            </g>
            <g id="ty4zhmg" class="systemMilestoneEnd k3sp9c1" />
            <g id="u1tsy16f" class="systemMilestoneEnd t10b79w0" />
         </g>
         <g id="vadku4w" class="pageMilestoneEnd r1bfi3ew" />
         <g id="w117rugw" class="pageMilestoneEnd q1pdy24y" />
      </g>
   </svg>
</svg>
