<svg width="840px" height="132px" version="1.1" xmlns="http://www.w3.org/2000/svg" xmlns:xlink="http://www.w3.org/1999/xlink" overflow="visible" id="e1ruobw4">
   <desc>Engraved by Verovio 6.3.0-425dd7b</desc>
   <defs>
      <g id="E062-e1ruobw4">
         <path transform="scale(1,-1)" d="M582 -120c0 32 26 58 58 58s58 -26 58 -58s-26 -58 -58 -58s-58 26 -58 58zM582 120c0 32 26 58 58 58s58 -26 58 -58s-26 -58 -58 -58s-58 26 -58 58zM158 96c51 0 73 -14 88 -49l16 -39c0 -17 -2 -30 -7 -40c-3 -11 -10 -21 -19 -31c-17 -18 -49 -43 -84 -43 c-55 0 -77 13 -112 44c-24 21 -35 55 -35 100c0 46 14 81 32 112c30 52 71 79 137 93l36 6l26 2c154 0 235 -68 274 -182c11 -32 18 -68 18 -107c0 -103 -26 -182 -68 -250c-89 -145 -234 -230 -412 -288l-30 -5c-9 0 -14 3 -14 8c3 10 5 11 10 16c35 15 70 30 96 44l78 43 c96 57 162 136 197 258c9 33 17 60 22 100c3 22 5 35 6 39c-7 69 -16 115 -23 140s-4 22 -16 40c-8 12 -19 23 -31 34c-24 21 -62 44 -118 44c-48 0 -84 -8 -113 -28c-28 -19 -42 -44 -42 -73v-16c2 -5 3 -9 4 -11c24 22 52 39 84 39z" />
      </g>
      <g id="E084-e1ruobw4">
         <path transform="scale(1,-1)" d="M20 -78c84 97 114 180 134 329h170c-13 -32 -82 -132 -99 -151l-84 -97c-33 -36 -59 -63 -80 -81h162v102l127 123v-225h57v-39h-57v-34c0 -43 19 -65 57 -65v-34h-244v36c48 0 60 26 60 70v27h-203v39z" />
      </g>
      <g id="E0A3-e1ruobw4">
         <path transform="scale(1,-1)" d="M278 64c0 22 -17 39 -43 39c-12 0 -26 -3 -41 -10c-85 -43 -165 -94 -165 -156c5 -25 15 -32 49 -32c67 11 200 95 200 159zM0 -36c0 68 73 174 200 174c66 0 114 -39 114 -97c0 -84 -106 -173 -218 -173c-64 0 -96 32 -96 96z" />
      </g>
   </defs>
   <style type="text/css">#e1ruobw4 g.ending, #e1ruobw4 g.fing, #e1ruobw4 g.reh, #e1ruobw4 g.tempo {font-weight:bold;}#e1ruobw4 g.dir, #e1ruobw4 g.dynam, #e1ruobw4 g.mNum {font-style:italic;}#e1ruobw4 g.label {font-weight:normal;}#e1ruobw4 ellipse, #e1ruobw4 path, #e1ruobw4 polygon, #e1ruobw4 polyline, #e1ruobw4 rect {stroke:currentColor}#e1ruobw4 g.cursor {fill:dodgerblue; color:dodgerblue;}#e1ruobw4 g.cursor.chord {fill:limegreen; color:limegreen;}</style>
   <svg class="definition-scale" color="black" font-family="Times, serif" viewBox="0 0 21000 3280">
      <g class="page-margin" transform="translate(500, 500)">
         <g id="os1fe02" class="mdiv pageMilestone" />
         <g id="ppnafmp" class="score pageMilestone" />
         <g id="swkd1y1" class="system">
            <g id="c16o0v0s" class="label">
               <text x="2169" y="1472" text-anchor="end" font-size="0px">
                  <tspan id="dki0iio" class="text">
                     <tspan font-size="288px">Bajo / contrabajo</tspan>
                  </tspan>
               </text>
            </g>
            <g id="r15cqf1u" class="section systemMilestone" />
            <g id="bg7go6z" class="section systemMilestone" />
            <g id="g11cxksz" class="measure">
               <g id="p1c2c2cv" class="staff">
                  <path d="M2349 1022 L5779 1022" stroke-width="13" />
                  <path d="M2349 1202 L5779 1202" stroke-width="13" />
                  <path d="M2349 1382 L5779 1382" stroke-width="13" />
                  <path d="M2349 1562 L5779 1562" stroke-width="13" />
                  <path d="M2349 1742 L5779 1742" stroke-width="13" />
                  <g id="c1p5yanp" class="clef">
                     <use xlink:href="#E062-e1ruobw4" transform="translate(2437, 1202) scale(0.72, 0.72)" />
                  </g>
                  <g id="dc317z2" class="keySig" />
                  <g id="erb9wxw" class="meterSig">
                     <use xlink:href="#E084-e1ruobw4" transform="translate(3104, 1202) scale(0.72, 0.72)" />
                     <use xlink:href="#E084-e1ruobw4" transform="translate(3104, 1562) scale(0.72, 0.72)" />
                  </g>
                  <g id="u16tfund" class="layer">
                     <g id="concepto-b1-n1" class="note">
                        <g class="notehead">
                           <use xlink:href="#E0A3-e1ruobw4" transform="translate(3666, 1202) scale(0.72, 0.72)" />
                        </g>
                        <g id="x1scfzs4" class="stem">
                           <path d="M3883 1174 L3883 662" stroke-width="18" />
                        </g>
                     </g>
                     <g id="concepto-b1-n2" class="note">
                        <g class="notehead">
                           <use xlink:href="#E0A3-e1ruobw4" transform="translate(4716, 1472) scale(0.72, 0.72)" />
                        </g>
                        <g id="y7y4fxm" class="stem">
                           <path d="M4933 1444 L4933 842" stroke-width="18" />
                        </g>
                     </g>
                  </g>
               </g>
               <g id="q1wo09vs" class="tempo" xml:lang="it">
                  <text x="3104" y="549" font-size="0px">
                     <tspan id="r1pqwuxf" class="text">
                        <tspan font-size="288px">Negra = 72</tspan>
                     </tspan>
                  </text>
               </g>
               <g id="sy6dcu4" class="harm">
                  <text x="3666" y="197" font-size="0px">
                     <tspan id="tkq3wsu" class="text">
                        <tspan font-size="288px">Dm7</tspan>
                     </tspan>
                  </text>
               </g>
               <g id="o1rnkpzx" class="barLine">
                  <path d="M5766 1022 L5766 1742" stroke-width="27" />
               </g>
            </g>
            <g id="x1aivmk" class="measure">
               <g id="gzaxxig" class="staff">
                  <path d="M5779 1022 L8072 1022" stroke-width="13" />
                  <path d="M5779 1202 L8072 1202" stroke-width="13" />
                  <path d="M5779 1382 L8072 1382" stroke-width="13" />
                  <path d="M5779 1562 L8072 1562" stroke-width="13" />
                  <path d="M5779 1742 L8072 1742" stroke-width="13" />
                  <g id="jnopj5f" class="layer">
                     <g id="concepto-b2-n1" class="note">
                        <g class="notehead">
                           <use xlink:href="#E0A3-e1ruobw4" transform="translate(5959, 1202) scale(0.72, 0.72)" />
                        </g>
                        <g id="zrhgvon" class="stem">
                           <path d="M6176 1174 L6176 662" stroke-width="18" />
                        </g>
                     </g>
                     <g id="concepto-b2-n2" class="note">
                        <g class="notehead">
                           <use xlink:href="#E0A3-e1ruobw4" transform="translate(7009, 1562) scale(0.72, 0.72)" />
                        </g>
                        <g id="a1uh3w3v" class="stem">
                           <path d="M7226 1534 L7226 932" stroke-width="18" />
                        </g>
                     </g>
                  </g>
               </g>
               <g id="hgcyeyl" class="harm">
                  <text x="5959" y="197" font-size="0px">
                     <tspan id="i10qfr2z" class="text">
                        <tspan font-size="288px">G7</tspan>
                     </tspan>
                  </text>
               </g>
               <g id="f105pxd6" class="barLine">
                  <path d="M8059 1022 L8059 1742" stroke-width="27" />
               </g>
            </g>
            <g id="mqcrx0e" class="measure">
               <g id="v13haci3" class="staff">
                  <path d="M8072 1022 L10527 1022" stroke-width="13" />
                  <path d="M8072 1202 L10527 1202" stroke-width="13" />
                  <path d="M8072 1382 L10527 1382" stroke-width="13" />
                  <path d="M8072 1562 L10527 1562" stroke-width="13" />
                  <path d="M8072 1742 L10527 1742" stroke-width="13" />
                  <g id="y18rth2v" class="layer">
                     <g id="concepto-b3-n1" class="note">
                        <g class="notehead">
                           <use xlink:href="#E0A3-e1ruobw4" transform="translate(8252, 1292) scale(0.72, 0.72)" />
                        </g>
                        <g id="br61rjr" class="stem">
                           <path d="M8469 1264 L8469 722" stroke-width="18" />
                        </g>
                     </g>
                     <g id="concepto-b3-n2" class="note">
                        <g class="notehead">
                           <use xlink:href="#E0A3-e1ruobw4" transform="translate(9302, 1562) scale(0.72, 0.72)" />
                        </g>
                        <g id="c1pvrzhp" class="stem">
                           <path d="M9519 1534 L9519 932" stroke-width="18" />
                        </g>
                     </g>
                  </g>
               </g>
               <g id="w1pav3mx" class="harm">
                  <text x="8252" y="197" font-size="0px">
                     <tspan id="xfc4n8b" class="text">
                        <tspan font-size="288px">Cmaj7</tspan>
                     </tspan>
                  </text>
               </g>
               <g id="uz5ummx" class="barLine">
                  <path d="M10352 1022 L10352 1742" stroke-width="27" />
                  <path d="M10482 1022 L10482 1742" stroke-width="90" />
               </g>
            </g>
            <g id="k1410r5u" class="systemMilestoneEnd bg7go6z" />
            <g id="l1wyjsvi" class="systemMilestoneEnd r15cqf1u" />
         </g>
         <g id="mugce3u" class="pageMilestoneEnd ppnafmp" />
         <g id="nqc9cf5" class="pageMilestoneEnd os1fe02" />
      </g>
   </svg>
</svg>
