<svg width="840px" height="225px" version="1.1" xmlns="http://www.w3.org/2000/svg" xmlns:xlink="http://www.w3.org/1999/xlink" overflow="visible" id="l1c6i876">
   <desc>Engraved by Verovio 6.3.0-425dd7b</desc>
   <defs>
      <g id="E062-l1c6i876">
         <path transform="scale(1,-1)" d="M582 -120c0 32 26 58 58 58s58 -26 58 -58s-26 -58 -58 -58s-58 26 -58 58zM582 120c0 32 26 58 58 58s58 -26 58 -58s-26 -58 -58 -58s-58 26 -58 58zM158 96c51 0 73 -14 88 -49l16 -39c0 -17 -2 -30 -7 -40c-3 -11 -10 -21 -19 -31c-17 -18 -49 -43 -84 -43 c-55 0 -77 13 -112 44c-24 21 -35 55 -35 100c0 46 14 81 32 112c30 52 71 79 137 93l36 6l26 2c154 0 235 -68 274 -182c11 -32 18 -68 18 -107c0 -103 -26 -182 -68 -250c-89 -145 -234 -230 -412 -288l-30 -5c-9 0 -14 3 -14 8c3 10 5 11 10 16c35 15 70 30 96 44l78 43 c96 57 162 136 197 258c9 33 17 60 22 100c3 22 5 35 6 39c-7 69 -16 115 -23 140s-4 22 -16 40c-8 12 -19 23 -31 34c-24 21 -62 44 -118 44c-48 0 -84 -8 -113 -28c-28 -19 -42 -44 -42 -73v-16c2 -5 3 -9 4 -11c24 22 52 39 84 39z" />
      </g>
      <g id="E084-l1c6i876">
         <path transform="scale(1,-1)" d="M20 -78c84 97 114 180 134 329h170c-13 -32 -82 -132 -99 -151l-84 -97c-33 -36 -59 -63 -80 -81h162v102l127 123v-225h57v-39h-57v-34c0 -43 19 -65 57 -65v-34h-244v36c48 0 60 26 60 70v27h-203v39z" />
      </g>
      <g id="E0A4-l1c6i876">
         <path transform="scale(1,-1)" d="M0 -39c0 68 73 172 200 172c66 0 114 -37 114 -95c0 -84 -106 -171 -218 -171c-64 0 -96 30 -96 94z" />
      </g>
      <g id="E260-l1c6i876">
         <path transform="scale(1,-1)" d="M20 110c32 16 54 27 93 27c26 0 35 -3 54 -13c13 -7 24 -20 27 -38l4 -25c0 -28 -16 -57 -45 -89c-23 -25 -39 -44 -65 -68l-88 -79v644h20v-359zM90 106c-32 0 -48 -10 -70 -29v-194c31 31 54 59 71 84c21 32 32 59 32 84c0 9 1 16 1 20c0 14 -3 21 -11 30l-8 3z" />
      </g>
      <g id="E4E5-l1c6i876">
         <path transform="scale(1,-1)" d="M107 292c-13 24 -30 49 -52 71c-1 1 0 2 0 3l-2 2c3 3 4 4 6 4c12 0 26 -7 40 -20s44 -40 89 -81c26 -24 28 -29 46 -47c4 -4 8 -9 10 -14c6 -8 8 -16 8 -27c0 -19 -12 -40 -36 -61c-28 -23 -49 -38 -61 -73c-4 -11 -7 -27 -10 -50c13 -43 34 -83 59 -121 c31 -47 59 -79 101 -129c-8 0 -26 7 -54 20l-62 29l-21 6l-23 1c-25 0 -45 -10 -60 -30l-4 -14l-1 -12c0 -33 20 -56 39 -78c8 -9 17 -18 26 -26c17 -15 27 -24 28 -30l-3 -3c-11 5 -19 10 -25 15c-9 3 -37 21 -45 26c-24 14 -45 32 -63 51c-19 21 -37 44 -37 71 c0 63 27 95 80 95c41 0 86 -18 136 -52c-19 26 -37 48 -55 66c-23 23 -48 44 -73 65c-28 23 -47 40 -58 53s-17 26 -18 39c75 64 113 125 113 183c0 27 -7 48 -18 68z" />
      </g>
   </defs>
   <style type="text/css">#l1c6i876 g.ending, #l1c6i876 g.fing, #l1c6i876 g.reh, #l1c6i876 g.tempo {font-weight:bold;}#l1c6i876 g.dir, #l1c6i876 g.dynam, #l1c6i876 g.mNum {font-style:italic;}#l1c6i876 g.label {font-weight:normal;}#l1c6i876 ellipse, #l1c6i876 path, #l1c6i876 polygon, #l1c6i876 polyline, #l1c6i876 rect {stroke:currentColor}#l1c6i876 g.cursor {fill:dodgerblue; color:dodgerblue;}#l1c6i876 g.cursor.chord {fill:limegreen; color:limegreen;}</style>
   <svg class="definition-scale" color="black" font-family="Times, serif" viewBox="0 0 21000 5610">
      <g class="page-margin" transform="translate(500, 500)">
         <g id="v10mbwdc" class="mdiv pageMilestone" />
         <g id="wv5evqg" class="score pageMilestone" />
         <g id="w1esqmi6" class="system">
            <g id="h77gfix" class="label">
               <text x="2169" y="1290" text-anchor="end" font-size="0px">
                  <tspan id="i9frmck" class="text">
                     <tspan font-size="288px">Bajo / contrabajo</tspan>
                  </tspan>
               </text>
            </g>
            <g id="y1sh5dro" class="section systemMilestone" />
            <g id="znd7x8p" class="pb" />
            <g id="lhw16ez" class="section systemMilestone" />
            <g id="o19l85i" class="measure">
               <g id="x1rz9xdq" class="staff">
                  <path d="M2349 840 L7551 840" stroke-width="13" />
                  <path d="M2349 1020 L7551 1020" stroke-width="13" />
                  <path d="M2349 1200 L7551 1200" stroke-width="13" />
                  <path d="M2349 1380 L7551 1380" stroke-width="13" />
                  <path d="M2349 1560 L7551 1560" stroke-width="13" />
                  <g id="h1n7tpya" class="clef">
                     <use xlink:href="#E062-l1c6i876" transform="translate(2437, 1020) scale(0.72, 0.72)" />
                  </g>
                  <g id="iggplz3" class="keySig" />
                  <g id="j4f6ne2" class="meterSig">
                     <use xlink:href="#E084-l1c6i876" transform="translate(3104, 1020) scale(0.72, 0.72)" />
                     <use xlink:href="#E084-l1c6i876" transform="translate(3104, 1380) scale(0.72, 0.72)" />
                  </g>
                  <g id="c11k1em3" class="layer">
                     <g id="pattern-b1-n1" class="note">
                        <g class="notehead">
                           <use xlink:href="#E0A4-l1c6i876" transform="translate(3735, 1290) scale(0.72, 0.72)" />
                        </g>
                        <g id="nyyxm2e" class="stem">
                           <path d="M3952 1262 L3952 660" stroke-width="18" />
                        </g>
                        <g id="e5ydi9y" class="verse">
                           <g id="f1crg7bn" class="syl">
                              <text x="3671" y="1975" font-size="0px">
                                 <tspan id="gb4o07a" class="text">
                                    <tspan font-size="288px">Do</tspan>
                                 </tspan>
                              </text>
                           </g>
                        </g>
                     </g>
                     <g id="pattern-b1-n2" class="note">
                        <g class="notehead">
                           <use xlink:href="#E0A4-l1c6i876" transform="translate(4685, 1200) scale(0.72, 0.72)" />
                        </g>
                        <g id="o2s2kn0" class="stem">
                           <path d="M4902 1172 L4902 600" stroke-width="18" />
                        </g>
                        <g id="i1vfm8k7" class="verse">
                           <g id="j1xpkm85" class="syl">
                              <text x="4621" y="1975" font-size="0px">
                                 <tspan id="k1wqouio" class="text">
                                    <tspan font-size="288px">Re</tspan>
                                 </tspan>
                              </text>
                           </g>
                        </g>
                     </g>
                     <g id="pattern-b1-n3" class="note">
                        <g class="notehead">
                           <use xlink:href="#E0A4-l1c6i876" transform="translate(5636, 1110) scale(0.72, 0.72)" />
                        </g>
                        <g id="p1o3tp2r" class="stem">
                           <path d="M5853 1082 L5853 540" stroke-width="18" />
                        </g>
                        <g id="mkqdt77" class="accid">
                           <use xlink:href="#E260-l1c6i876" transform="translate(5449, 1110) scale(0.72, 0.72)" />
                        </g>
                        <g id="n1ajth87" class="verse">
                           <g id="o67gomj" class="syl">
                              <text x="5572" y="1975" font-size="0px">
                                 <tspan id="p1y6lilj" class="text">
                                    <tspan font-size="288px">Mib</tspan>
                                 </tspan>
                              </text>
                           </g>
                        </g>
                     </g>
                     <g id="pattern-b1-n4" class="note">
                        <g class="notehead">
                           <use xlink:href="#E0A4-l1c6i876" transform="translate(6587, 1200) scale(0.72, 0.72)" />
                        </g>
                        <g id="qtgt53j" class="stem">
                           <path d="M6804 1172 L6804 600" stroke-width="18" />
                        </g>
                        <g id="r1klwunw" class="verse">
                           <g id="sa6bisy" class="syl">
                              <text x="6523" y="1975" font-size="0px">
                                 <tspan id="t1y6j1c8" class="text">
                                    <tspan font-size="288px">Re</tspan>
                                 </tspan>
                              </text>
                           </g>
                        </g>
                     </g>
                  </g>
               </g>
               <g id="y15ikg6v" class="tempo" xml:lang="it">
                  <text x="3173" y="547" font-size="0px">
                     <tspan id="zl9k3r0" class="text">
                        <tspan font-size="288px">Negra = 64</tspan>
                     </tspan>
                  </text>
               </g>
               <g id="avh7np8" class="harm">
                  <text x="3735" y="195" font-size="0px">
                     <tspan id="bwsqo2a" class="text">
                        <tspan font-size="288px">Cm7</tspan>
                     </tspan>
                  </text>
               </g>
               <g id="wfukyue" class="barLine">
                  <path d="M7538 840 L7538 1560" stroke-width="27" />
               </g>
            </g>
            <g id="u81jv8e" class="measure">
               <g id="d18rjdmx" class="staff">
                  <path d="M7551 840 L11873 840" stroke-width="13" />
                  <path d="M7551 1020 L11873 1020" stroke-width="13" />
                  <path d="M7551 1200 L11873 1200" stroke-width="13" />
                  <path d="M7551 1380 L11873 1380" stroke-width="13" />
                  <path d="M7551 1560 L11873 1560" stroke-width="13" />
                  <g id="g156r3j6" class="layer">
                     <g id="pattern-b2-n1" class="note">
                        <g class="notehead">
                           <use xlink:href="#E0A4-l1c6i876" transform="translate(8057, 1110) scale(0.72, 0.72)" />
                        </g>
                        <g id="r1s6lje" class="stem">
                           <path d="M8274 1082 L8274 540" stroke-width="18" />
                        </g>
                        <g id="i18vh6by" class="accid">
                           <use xlink:href="#E260-l1c6i876" transform="translate(7870, 1110) scale(0.72, 0.72)" />
                        </g>
                        <g id="j1er19c6" class="verse">
                           <g id="kphstzi" class="syl">
                              <text x="7993" y="1975" font-size="0px">
                                 <tspan id="l1e5842w" class="text">
                                    <tspan font-size="288px">Mib</tspan>
                                 </tspan>
                              </text>
                           </g>
                        </g>
                     </g>
                     <g id="pattern-b2-n2" class="note">
                        <g class="notehead">
                           <use xlink:href="#E0A4-l1c6i876" transform="translate(9008, 1020) scale(0.72, 0.72)" />
                        </g>
                        <g id="s1vekvn3" class="stem">
                           <path d="M9225 992 L9225 480" stroke-width="18" />
                        </g>
                        <g id="n12vsuom" class="verse">
                           <g id="o1c7uyai" class="syl">
                              <text x="8944" y="1975" font-size="0px">
                                 <tspan id="pqj5hjk" class="text">
                                    <tspan font-size="288px">Fa</tspan>
                                 </tspan>
                              </text>
                           </g>
                        </g>
                     </g>
                     <g id="pattern-b2-n3" class="note">
                        <g class="notehead">
                           <use xlink:href="#E0A4-l1c6i876" transform="translate(9959, 1110) scale(0.72, 0.72)" />
                        </g>
                        <g id="t1m5idpf" class="stem">
                           <path d="M10176 1082 L10176 540" stroke-width="18" />
                        </g>
                        <g id="rd3iwwn" class="accid">
                           <use xlink:href="#E260-l1c6i876" transform="translate(9772, 1110) scale(0.72, 0.72)" />
                        </g>
                        <g id="s17k03bx" class="verse">
                           <g id="t1lm5p68" class="syl">
                              <text x="9895" y="1975" font-size="0px">
                                 <tspan id="u137vprd" class="text">
                                    <tspan font-size="288px">Mib</tspan>
                                 </tspan>
                              </text>
                           </g>
                        </g>
                     </g>
                     <g id="pattern-b2-n4" class="note">
                        <g class="notehead">
                           <use xlink:href="#E0A4-l1c6i876" transform="translate(10909, 1020) scale(0.72, 0.72)" />
                        </g>
                        <g id="uxbycpo" class="stem">
                           <path d="M11126 992 L11126 480" stroke-width="18" />
                        </g>
                        <g id="wqai8mk" class="verse">
                           <g id="x1crhtey" class="syl">
                              <text x="10845" y="1975" font-size="0px">
                                 <tspan id="y5x6mf9" class="text">
                                    <tspan font-size="288px">Fa</tspan>
                                 </tspan>
                              </text>
                           </g>
                        </g>
                     </g>
                  </g>
               </g>
               <g id="egz5rnw" class="harm">
                  <text x="8057" y="195" font-size="0px">
                     <tspan id="f18lyiru" class="text">
                        <tspan font-size="288px">Cm7</tspan>
                     </tspan>
                  </text>
               </g>
               <g id="c8dmhnr" class="barLine">
                  <path d="M11860 840 L11860 1560" stroke-width="27" />
               </g>
            </g>
            <g id="z1a5q1xk" class="measure">
               <g id="ifnftk9" class="staff">
                  <path d="M11873 840 L15938 840" stroke-width="13" />
                  <path d="M11873 1020 L15938 1020" stroke-width="13" />
                  <path d="M11873 1200 L15938 1200" stroke-width="13" />
                  <path d="M11873 1380 L15938 1380" stroke-width="13" />
                  <path d="M11873 1560 L15938 1560" stroke-width="13" />
                  <g id="lz90f57" class="layer">
                     <g id="pattern-b3-n1" class="note">
                        <g class="notehead">
                           <use xlink:href="#E0A4-l1c6i876" transform="translate(12122, 930) scale(0.72, 0.72)" />
                        </g>
                        <g id="vmq8xq6" class="stem">
                           <path d="M12339 902 L12339 420" stroke-width="18" />
                        </g>
                        <g id="n1bttskv" class="verse">
                           <g id="o1rjexh3" class="syl">
                              <text x="12058" y="1975" font-size="0px">
                                 <tspan id="pww5ff7" class="text">
                                    <tspan font-size="288px">Sol</tspan>
                                 </tspan>
                              </text>
                           </g>
                        </g>
                     </g>
                     <g id="pattern-b3-n2" class="note">
                        <g class="notehead">
                           <use xlink:href="#E0A4-l1c6i876" transform="translate(13072, 1020) scale(0.72, 0.72)" />
                        </g>
                        <g id="w1cx3klp" class="stem">
                           <path d="M13289 992 L13289 480" stroke-width="18" />
                        </g>
                        <g id="r491v7b" class="verse">
                           <g id="s1yaryyo" class="syl">
                              <text x="13008" y="1975" font-size="0px">
                                 <tspan id="t1qdaog1" class="text">
                                    <tspan font-size="288px">Fa</tspan>
                                 </tspan>
                              </text>
                           </g>
                        </g>
                     </g>
                     <g id="pattern-b3-n3" class="note">
                        <g class="notehead">
                           <use xlink:href="#E0A4-l1c6i876" transform="translate(14023, 930) scale(0.72, 0.72)" />
                        </g>
                        <g id="xt1pm9g" class="stem">
                           <path d="M14240 902 L14240 420" stroke-width="18" />
                        </g>
                        <g id="volmhkp" class="verse">
                           <g id="w84mbdo" class="syl">
                              <text x="13959" y="1975" font-size="0px">
                                 <tspan id="x86prbp" class="text">
                                    <tspan font-size="288px">Sol</tspan>
                                 </tspan>
                              </text>
                           </g>
                        </g>
                     </g>
                     <g id="pattern-b3-n4" class="note">
                        <g class="notehead">
                           <use xlink:href="#E0A4-l1c6i876" transform="translate(14974, 840) scale(0.72, 0.72)" />
                        </g>
                        <g id="yfv5rpp" class="stem">
                           <path d="M15191 812 L15191 360" stroke-width="18" />
                        </g>
                        <g id="z10g0iir" class="accid">
                           <use xlink:href="#E260-l1c6i876" transform="translate(14787, 840) scale(0.72, 0.72)" />
                        </g>
                        <g id="ayqp922" class="verse">
                           <g id="bcz4hod" class="syl">
                              <text x="14910" y="1975" font-size="0px">
                                 <tspan id="c1ljg17l" class="text">
                                    <tspan font-size="288px">Lab</tspan>
                                 </tspan>
                              </text>
                           </g>
                        </g>
                     </g>
                  </g>
               </g>
               <g id="j5qm68v" class="harm">
                  <text x="12122" y="195" font-size="0px">
                     <tspan id="kr73rer" class="text">
                        <tspan font-size="288px">Cm7</tspan>
                     </tspan>
                  </text>
               </g>
               <g id="h1wfh8zy" class="barLine">
                  <path d="M15925 840 L15925 1560" stroke-width="27" />
               </g>
            </g>
            <g id="d1h5cclp" class="measure">
               <g id="m7nzzt0" class="staff">
                  <path d="M15938 840 L20003 840" stroke-width="13" />
                  <path d="M15938 1020 L20003 1020" stroke-width="13" />
                  <path d="M15938 1200 L20003 1200" stroke-width="13" />
                  <path d="M15938 1380 L20003 1380" stroke-width="13" />
                  <path d="M15938 1560 L20003 1560" stroke-width="13" />
                  <g id="p8vh15r" class="layer">
                     <g id="pattern-b4-n1" class="note">
                        <g class="notehead">
                           <use xlink:href="#E0A4-l1c6i876" transform="translate(16187, 930) scale(0.72, 0.72)" />
                        </g>
                        <g id="za1m8ts" class="stem">
                           <path d="M16404 902 L16404 420" stroke-width="18" />
                        </g>
                        <g id="r5gfb26" class="verse">
                           <g id="sf5m73o" class="syl">
                              <text x="16123" y="1975" font-size="0px">
                                 <tspan id="tzjbmk8" class="text">
                                    <tspan font-size="288px">Sol</tspan>
                                 </tspan>
                              </text>
                           </g>
                        </g>
                     </g>
                     <g id="pattern-b4-n2" class="note">
                        <g class="notehead">
                           <use xlink:href="#E0A4-l1c6i876" transform="translate(17137, 840) scale(0.72, 0.72)" />
                        </g>
                        <g id="a1mruw2n" class="stem">
                           <path d="M17354 812 L17354 360" stroke-width="18" />
                        </g>
                        <g id="vhahpwn" class="accid">
                           <use xlink:href="#E260-l1c6i876" transform="translate(16950, 840) scale(0.72, 0.72)" />
                        </g>
                        <g id="whiyxe7" class="verse">
                           <g id="x17cz70v" class="syl">
                              <text x="17073" y="1975" font-size="0px">
                                 <tspan id="y7mtpx6" class="text">
                                    <tspan font-size="288px">Lab</tspan>
                                 </tspan>
                              </text>
                           </g>
                        </g>
                     </g>
                     <g id="pattern-b4-n3" class="note">
                        <g class="notehead">
                           <use xlink:href="#E0A4-l1c6i876" transform="translate(18088, 750) scale(0.72, 0.72)" />
                        </g>
                        <g id="b1wcclxa" class="stem">
                           <path d="M18305 722 L18305 300" stroke-width="18" />
                        </g>
                        <g id="a1punp80" class="accid">
                           <use xlink:href="#E260-l1c6i876" transform="translate(17901, 750) scale(0.72, 0.72)" />
                        </g>
                        <g id="birebn5" class="verse">
                           <g id="c1l7vq3n" class="syl">
                              <text x="18024" y="1975" font-size="0px">
                                 <tspan id="dvcg7eg" class="text">
                                    <tspan font-size="288px">Sib</tspan>
                                 </tspan>
                              </text>
                           </g>
                        </g>
                     </g>
                     <g id="pattern-b4-n4" class="note">
                        <g class="notehead">
                           <use xlink:href="#E0A4-l1c6i876" transform="translate(19039, 840) scale(0.72, 0.72)" />
                        </g>
                        <g id="c1enf6k8" class="stem">
                           <path d="M19256 812 L19256 360" stroke-width="18" />
                        </g>
                        <g id="f16mwpec" class="accid">
                           <use xlink:href="#E260-l1c6i876" transform="translate(18852, 840) scale(0.72, 0.72)" />
                        </g>
                        <g id="gfwa4j6" class="verse">
                           <g id="h1exgm9r" class="syl">
                              <text x="18975" y="1975" font-size="0px">
                                 <tspan id="ioczlk9" class="text">
                                    <tspan font-size="288px">Lab</tspan>
                                 </tspan>
                              </text>
                           </g>
                        </g>
                     </g>
                  </g>
               </g>
               <g id="njqnmbk" class="harm">
                  <text x="16187" y="195" font-size="0px">
                     <tspan id="o4y5l1k" class="text">
                        <tspan font-size="288px">Cm7</tspan>
                     </tspan>
                  </text>
               </g>
               <g id="l19y4ghn" class="barLine">
                  <path d="M19990 840 L19990 1560" stroke-width="27" />
               </g>
            </g>
         </g>
         <g id="z98pu50" class="system">
            <g id="t1gkmzjv" class="sb" />
            <g id="j1u1wqqa" class="measure">
               <g id="g1f3qk6i" class="mNum autogenerated">
                  <text y="3184" text-anchor="middle" font-size="0px">
                     <tspan id="hbjjag7" class="text">
                        <tspan font-size="230px">5</tspan>
                     </tspan>
                  </text>
               </g>
               <g id="s1jc6gqg" class="staff">
                  <path d="M0 3356 L3981 3356" stroke-width="13" />
                  <path d="M0 3536 L3981 3536" stroke-width="13" />
                  <path d="M0 3716 L3981 3716" stroke-width="13" />
                  <path d="M0 3896 L3981 3896" stroke-width="13" />
                  <path d="M0 4076 L3981 4076" stroke-width="13" />
                  <g id="of37fek" class="clef">
                     <use xlink:href="#E062-l1c6i876" transform="translate(88, 3536) scale(0.72, 0.72)" />
                  </g>
                  <g id="p1a37rju" class="keySig" />
                  <g class="ledgerLines above">
                     <path d="M1688 3176 L2010 3176" stroke-width="22" />
                     <path d="M2378 3176 L2700 3176" stroke-width="22" />
                  </g>
                  <g id="woti778" class="layer">
                     <g id="pattern-b5-n1" class="note">
                        <g class="notehead">
                           <use xlink:href="#E0A4-l1c6i876" transform="translate(1046, 3266) scale(0.72, 0.72)" />
                        </g>
                        <g id="d14u6nji" class="stem">
                           <path d="M1263 3238 L1263 2816" stroke-width="18" />
                        </g>
                        <g id="y29f7rt" class="accid">
                           <use xlink:href="#E260-l1c6i876" transform="translate(859, 3266) scale(0.72, 0.72)" />
                        </g>
                        <g id="z9cf3qg" class="verse">
                           <g id="ar5h59n" class="syl">
                              <text x="982" y="4491" font-size="0px">
                                 <tspan id="b17h7wts" class="text">
                                    <tspan font-size="288px">Sib</tspan>
                                 </tspan>
                              </text>
                           </g>
                        </g>
                     </g>
                     <g id="pattern-b5-n2" class="note">
                        <g class="notehead">
                           <use xlink:href="#E0A4-l1c6i876" transform="translate(1736, 3176) scale(0.72, 0.72)" />
                        </g>
                        <g id="exep39i" class="stem">
                           <path d="M1953 3148 L1953 2726" stroke-width="18" />
                        </g>
                        <g id="dunqeo2" class="verse">
                           <g id="ez2kb8s" class="syl">
                              <text x="1672" y="4491" font-size="0px">
                                 <tspan id="f1ckkknl" class="text">
                                    <tspan font-size="288px">Do</tspan>
                                 </tspan>
                              </text>
                           </g>
                        </g>
                     </g>
                     <g id="pattern-b5-n3" class="note">
                        <g class="notehead">
                           <use xlink:href="#E0A4-l1c6i876" transform="translate(2426, 3176) scale(0.72, 0.72)" />
                        </g>
                        <g id="fuq2pc2" class="stem">
                           <path d="M2643 3148 L2643 2726" stroke-width="18" />
                        </g>
                        <g id="h1hdspvq" class="verse">
                           <g id="i16adjk7" class="syl">
                              <text x="2362" y="4491" font-size="0px">
                                 <tspan id="j1inbdmb" class="text">
                                    <tspan font-size="288px">Do</tspan>
                                 </tspan>
                              </text>
                           </g>
                        </g>
                     </g>
                     <g id="pattern-b5-n4" class="rest">
                        <use xlink:href="#E4E5-l1c6i876" transform="translate(3116, 3716) scale(0.72, 0.72)" />
                     </g>
                  </g>
               </g>
               <g id="u1nya458" class="harm">
                  <text x="1046" y="2655" font-size="0px">
                     <tspan id="v8r6e6t" class="text">
                        <tspan font-size="288px">Cm7</tspan>
                     </tspan>
                  </text>
               </g>
               <g id="r1p54wqa" class="barLine">
                  <path d="M3806 3356 L3806 4076" stroke-width="27" />
                  <path d="M3936 3356 L3936 4076" stroke-width="90" />
               </g>
            </g>
            <g id="u1bpad6k" class="systemMilestoneEnd lhw16ez" />
            <g id="v1wrxtv9" class="systemMilestoneEnd y1sh5dro" />
         </g>
         <g id="w1yxwydq" class="pageMilestoneEnd wv5evqg" />
         <g id="xrmab9b" class="pageMilestoneEnd v10mbwdc" />
      </g>
   </svg>
</svg>
